<svg width="44" height="43" viewBox="0 0 44 43" fill="none" xmlns="http://www.w3.org/2000/svg">
<path d="M32.12 0C39.5671 0 43.7712 4.14735 43.7931 11.4595V31.5405C43.7931 38.8505 39.5671 43 32.12 43H11.6709C4.22384 43 0 38.8505 0 31.5405V11.4595C0 4.14735 4.22384 0 11.6709 0H32.12ZM22.9914 8.8795C22.3761 8.514 21.6316 8.514 21.0426 8.8795C20.4492 9.24285 20.1229 9.9115 20.1864 10.578V32.4865C20.2981 33.411 21.0842 34.099 22.0038 34.099C22.9476 34.099 23.7337 33.411 23.8213 32.4865V10.578C23.9088 9.9115 23.5826 9.24285 22.9914 8.8795ZM12.7657 15.9315C12.1745 15.566 11.4278 15.566 10.8388 15.9315C10.2454 16.297 9.91914 16.9614 9.98483 17.63V32.4865C10.0702 33.411 10.8585 34.099 11.8 34.099C12.7438 34.099 13.5299 33.411 13.6175 32.4865V17.63C13.6853 16.9614 13.3547 16.297 12.7657 15.9315ZM33.0397 23.736C32.4507 23.3705 31.7062 23.3705 31.0931 23.736C30.4997 24.1015 30.1734 24.7444 30.261 25.4345V32.4865C30.3486 33.411 31.1347 34.099 32.0784 34.099C32.9981 34.099 33.7842 33.411 33.8959 32.4865V25.4345C33.9594 24.7444 33.6331 24.1015 33.0397 23.736Z" fill="#058E6E"/>
</svg>
